<svg width="1917" height="1019" viewBox="0 0 1917 1019" fill="none" xmlns="http://www.w3.org/2000/svg">
<path opacity="0.9" d="M643.22 934.751V884.201L595.661 856.718V910.867L551.206 936.387V883.22L504.464 910.212L459.356 884.038V834.47C460.664 834.143 461.808 832.834 461.808 831.362C461.808 831.034 461.808 830.871 461.644 830.544L504.954 805.514L505.281 805.351V750.384L458.539 777.377L412.614 750.875L366.689 777.377L321.581 751.202V699.18L368.323 672.188L321.581 645.195V591.047L274.348 618.366L274.022 618.53V670.716L232.019 646.341C232.019 646.013 232.182 645.85 232.182 645.523C232.182 644.05 231.202 642.742 229.731 642.414V539.679L275.329 513.341L275.656 513.178V458.211L228.423 485.531L228.096 485.695V538.861L182.988 565.036L138.698 539.352L183.479 513.505L183.806 513.341V458.375L136.573 485.695L136.246 485.858V591.211L93.7532 566.672C93.7532 566.345 93.9167 566.181 93.9167 565.854C93.9167 564.382 92.9361 563.073 91.4652 562.746V512.196L46.3572 486.022L90.648 460.338L91.4652 460.829V459.847L92.2823 459.356L91.4652 458.866V405.862L47.6647 380.669C47.6647 380.342 47.8281 380.179 47.8281 379.851C47.8281 378.052 46.3572 376.58 44.5594 376.58C42.7617 376.58 41.2908 378.052 41.2908 379.851C41.2908 381.324 42.2714 382.632 43.7423 382.96V432.528L-3 459.52L42.9251 486.022L-1.69252 512.033L-2.01939 512.196V565.363L-3 565.854L-2.18283 566.345V619.512L42.9251 645.523L-1.85596 671.37L-2.18283 671.534V726.5L45.0498 699.18L45.3766 699.017V592.846L88.1965 567.981C88.5233 568.308 89.1771 568.635 89.6674 568.799V619.348L134.775 645.523L90.1577 671.37L89.8308 671.534V724.7L47.011 749.403C46.3572 748.748 45.7035 748.421 44.7229 748.421C42.9251 748.421 41.4542 749.893 41.4542 751.693C41.4542 753.165 42.4348 754.474 43.9057 754.801V857.536L-1.85596 884.038L-2.18283 884.201V991.353L43.7423 1017.85V1018.84L44.5594 1018.35L45.3766 1018.84V1017.85L90.9749 991.517L91.3017 991.353V936.387L46.8475 962.07C46.1938 961.416 45.5401 961.089 44.5594 961.089C43.7423 961.089 42.9251 961.416 42.2714 962.07L0.268691 937.859L90.648 885.674L137.39 912.666V858.518L182.988 832.179L183.315 832.016V781.466C184.623 781.139 185.767 779.83 185.767 778.358C185.767 776.559 184.296 775.086 182.498 775.086C180.7 775.086 179.229 776.559 179.229 778.358C179.229 778.685 179.229 778.849 179.393 779.176L136.083 804.206L135.756 804.369V856.555L91.4652 830.871V725.518L136.573 699.508L183.315 726.5V672.351L226.135 647.486C226.462 647.813 227.116 648.14 227.606 648.304V699.18L271.243 724.373C271.243 724.7 271.08 724.864 271.08 725.191C271.08 725.518 271.08 725.682 271.243 726.009L227.933 751.039L227.606 751.202V857.372L184.95 882.075C184.296 881.257 183.479 880.766 182.335 880.766C180.537 880.766 179.066 882.238 179.066 884.038C179.066 885.51 180.047 886.819 181.518 887.146V939.168L227.443 912.666V964.852L275.002 992.335V937.368L229.894 911.357L274.348 885.674L317.168 910.539C317.168 910.867 317.005 911.03 317.005 911.357C317.005 913.157 318.476 914.629 320.273 914.629C322.071 914.629 323.542 913.157 323.542 911.357C323.542 909.885 322.562 908.576 321.091 908.249V805.514L366.199 779.34L410.489 805.023L365.708 830.871L365.381 831.034V884.201L364.564 884.692L365.381 885.183V937.368L319.783 963.706L319.456 963.87V1018.84L366.689 991.517L367.016 991.353V939.168L411.307 964.852V965.833L412.124 965.342L458.866 992.335V940.804C459.356 940.64 460.01 940.313 460.337 939.986L503.157 964.852V1019L549.082 992.498L596.314 965.179L596.641 965.015V912.83L638.644 937.205C638.644 937.532 638.481 937.695 638.481 938.023C638.481 939.822 639.951 941.294 641.749 941.294C643.547 941.294 645.018 939.822 645.018 938.023C645.672 936.387 644.528 935.078 643.22 934.751ZM137.39 486.512L181.681 460.829V512.033L137.39 537.716V486.512ZM43.7423 698.199L-0.548482 723.882V672.679L43.7423 646.995V698.199ZM89.8308 939.331V990.535L45.5401 1016.22V967.469C46.8475 967.142 47.9916 965.833 47.9916 964.361C47.9916 964.034 47.9916 963.87 47.8281 963.543L89.8308 939.331ZM43.9057 967.469V1016.06L-0.548482 990.535V939.331L41.4542 963.706C41.4542 964.034 41.2908 964.197 41.2908 964.524C41.4542 965.833 42.4348 967.142 43.9057 967.469ZM549.572 937.368L505.281 963.052V911.848L549.572 886.164V937.368ZM457.722 934.751C457.232 934.914 456.578 935.242 456.251 935.569L414.248 911.194L457.722 886.001V934.751ZM413.268 857.7V806.496L455.27 830.871C455.27 831.198 455.107 831.362 455.107 831.689C455.107 833.161 456.088 834.47 457.558 834.797V883.383L413.268 857.7ZM457.722 828.417C457.232 828.58 456.578 828.908 456.251 829.235L414.248 804.86L457.722 779.667V828.417ZM412.451 859.008L456.741 884.692L436.639 896.307L412.451 910.212L368.16 884.528L388.262 872.914L412.451 859.008ZM413.268 912.666L455.27 937.041C455.27 937.368 455.107 937.532 455.107 937.859C455.107 938.186 455.107 938.35 455.27 938.677L413.268 963.052V912.666ZM503.647 804.533L460.827 829.398C460.5 829.071 459.847 828.744 459.356 828.581V779.013L503.647 753.329V804.533ZM275.329 722.247V673.66L319.62 699.344V750.548L277.617 726.173C277.617 725.846 277.781 725.682 277.781 725.355C277.781 723.719 276.8 722.574 275.329 722.247ZM275.329 728.299C275.819 728.136 276.473 727.809 276.8 727.482L318.803 751.857L275.329 777.049V728.299ZM320.6 697.708L276.31 672.024L320.6 646.341L364.891 672.024L320.6 697.708ZM275.329 619.512L319.62 593.828V645.032L275.329 670.716V619.512ZM229.404 486.512L273.695 460.829V512.033L229.404 537.716V486.512ZM227.77 591.865L213.224 600.208L183.315 617.549V566.345L227.606 540.661V591.865H227.77ZM181.681 670.716L137.227 645.195V593.991L181.681 619.512V670.716ZM137.39 540.661L181.681 566.345V617.549L137.227 592.028V540.661H137.39ZM89.8308 562.746C89.3405 562.909 88.6868 563.236 88.3599 563.564L45.5401 538.698V487.494L89.8308 513.178V562.746ZM89.8308 406.844V458.048L45.3766 432.528V382.96C45.8669 382.796 46.5207 382.469 46.8475 382.142L89.8308 406.844ZM44.5594 433.836L88.8502 459.52L45.3766 484.713L44.5594 485.204L43.7423 484.713L0.268691 459.52L44.5594 433.836ZM-0.548482 513.178L43.7423 487.494V538.698L-0.548482 564.382V513.178ZM-0.548482 567.163L43.7423 592.846V644.05L-0.548482 618.53V567.163ZM44.5594 591.374L0.268691 565.854L20.3711 554.239L44.5594 540.334L87.5427 565.036C87.5427 565.363 87.3793 565.527 87.3793 565.854C87.3793 566.181 87.3793 566.345 87.5427 566.672L44.5594 591.374ZM91.4652 568.962C91.9555 568.799 92.6092 568.471 92.9361 568.144L135.756 592.846V644.05L91.4652 618.366V568.962ZM91.4652 672.515L135.756 646.831V698.035L91.4652 723.719V672.515ZM45.5401 754.965C46.8475 754.638 47.9916 753.329 47.9916 751.857C47.9916 751.529 47.9916 751.366 47.8281 751.039L89.8308 726.664V777.867L45.5401 803.551V754.965ZM89.8308 831.034L45.5401 856.718V805.514L89.8308 779.83V831.034ZM43.7423 910.867L-0.548482 936.387V885.183L43.7423 859.499V910.867ZM45.5401 858.518L89.8308 832.834V884.038L45.5401 909.721V858.518ZM137.39 805.514L180.21 780.648C180.537 780.976 181.191 781.303 181.681 781.466V831.034L137.39 856.718V805.514ZM135.756 909.885L91.4652 884.201V832.997L135.756 858.681V909.885ZM181.681 723.882L137.39 698.199V646.995L181.844 672.515V723.882H181.681ZM183.315 670.716V619.512L208.648 604.789L227.606 593.828V642.414C226.299 642.742 225.155 644.05 225.155 645.523C225.155 645.85 225.155 646.013 225.318 646.341L183.315 670.716ZM229.404 698.199V648.631C229.894 648.467 230.548 648.14 230.875 647.813L273.695 672.679V722.247C273.204 722.41 272.551 722.737 272.224 723.065L229.404 698.199ZM229.404 752.347L272.224 727.482C272.551 727.809 273.204 728.136 273.695 728.299V777.867L272.878 778.358L229.404 803.551V752.347ZM229.404 858.518L273.695 832.834V884.038L229.404 909.721V858.518ZM273.695 831.034L229.404 856.718V805.514L273.695 779.83V831.034ZM183.315 936.387V887.146C184.623 886.819 185.767 885.51 185.767 884.038C185.767 883.874 185.767 883.874 185.767 883.711L227.77 859.499V910.703L183.315 936.387ZM273.695 989.554L229.404 963.87V912.666L273.695 938.35V989.554ZM319.783 908.249C319.293 908.413 318.639 908.74 318.312 909.067L275.492 884.201V832.997L319.783 858.681V908.249ZM275.329 831.034V779.83L319.62 805.514V856.718L275.329 831.034ZM320.6 804.042L276.31 778.358L320.6 752.674L321.418 753.165L364.891 778.358L320.6 804.042ZM412.451 752.838L456.741 778.522L413.268 803.715L412.451 804.206L411.633 803.715L368.16 778.522L412.451 752.838ZM367.343 832.016L411.633 806.332V857.536L367.343 883.22V832.016ZM365.708 990.535L321.418 1016.22V965.015L365.708 939.331V990.535ZM367.343 937.368V886.164L411.633 911.848V963.052L367.343 937.368ZM414.085 964.361L456.088 939.986C456.414 940.313 457.068 940.64 457.558 940.804V989.39L414.085 964.361ZM459.356 934.751V886.164L503.647 911.848V963.052L461.644 938.677C461.644 938.35 461.808 938.186 461.808 937.859C461.644 936.387 460.664 935.078 459.356 934.751ZM505.281 1016.06V964.852L549.572 939.168V990.372L505.281 1016.06ZM595.661 963.87L551.37 989.554V938.35L595.661 912.666V963.87ZM597.295 910.867V859.499L641.586 885.183V934.751C641.095 934.914 640.605 935.242 640.115 935.569L597.295 910.867ZM1917 559.48L1871.07 532.978L1915.86 507.131L1916.18 506.967V453.8L1917 453.31L1916.18 452.819V399.652L1871.07 373.641L1915.86 347.794L1916.18 347.63V292.664L1868.95 319.983L1868.62 320.147V426.481L1825.64 450.856C1825.31 450.529 1824.66 450.201 1824.17 450.038V346.321L1778.24 319.82V266.653L1734.44 241.46C1734.44 241.133 1734.61 240.969 1734.61 240.642C1734.61 240.315 1734.61 240.151 1734.44 239.824L1777.75 214.795L1778.08 214.631V162.282L1822.37 187.966V295.281L1866.83 269.597C1867.48 270.252 1868.13 270.579 1869.11 270.579C1870.91 270.579 1872.38 269.107 1872.38 267.307C1872.38 265.835 1871.4 264.526 1869.93 264.199V161.464L1915.53 135.126L1915.86 134.962V79.6686L1870.09 106.334L1823.35 133.326L1776.45 106.334V160.482L1730.85 186.82L1730.52 186.984V237.534C1729.21 237.861 1728.07 239.17 1728.07 240.642C1728.07 242.114 1729.05 243.423 1730.52 243.75V294.3L1776.45 320.801V372.987L1732.16 398.67V346.485L1686.23 319.983V319.002L1685.41 319.493L1684.6 319.002V319.983L1639 346.321L1638.67 346.485V401.451L1683.13 375.768C1683.78 376.422 1684.43 376.749 1685.41 376.749C1686.39 376.749 1687.05 376.422 1687.7 375.768L1730.52 400.47V507.785L1777.26 480.793L1867.48 533.142L1823.19 558.826L1822.37 558.335V559.316L1821.55 559.807L1822.37 560.298V613.465L1868.3 639.967V689.535C1866.99 689.862 1865.84 691.17 1865.84 692.643C1865.84 694.442 1867.32 695.915 1869.11 695.915C1870.91 695.915 1872.38 694.442 1872.38 692.643C1872.38 692.316 1872.38 692.152 1872.22 691.825L1915.53 666.795L1915.86 666.632V611.665L1869.93 638.167V586.963L1917 559.48ZM1870.09 320.801L1914.39 295.118V346.321L1870.09 372.005V320.801ZM1914.55 505.822L1870.26 531.506V480.302L1914.55 454.618V505.822ZM1914.55 451.674L1870.26 425.99V374.786L1914.55 400.47V451.674ZM1869.28 427.462L1913.57 453.146L1893.47 464.761L1869.28 478.666L1826.46 453.8C1826.46 453.473 1826.62 453.31 1826.62 452.982C1826.62 452.655 1826.62 452.492 1826.46 452.165L1869.28 427.462ZM1822.53 400.47V450.038C1822.04 450.201 1821.39 450.529 1821.06 450.856L1778.08 426.154V374.95L1822.53 400.47ZM1824.17 187.966L1868.46 162.282V213.486L1824.17 239.17V187.966ZM1824.17 292.336V241.133L1868.46 215.449V264.035C1867.15 264.362 1866.01 265.671 1866.01 267.144C1866.01 267.471 1866.01 267.634 1866.17 267.961L1824.17 292.336ZM1870.09 108.133L1914.39 82.4497V133.654L1870.09 159.337V108.133ZM1868.46 160.319L1824.17 186.003V134.799L1868.46 109.115V160.319ZM1778.08 109.115L1822.37 134.799V186.003L1778.08 160.319V109.115ZM1776.45 162.282V213.486L1733.63 238.352C1733.3 238.024 1732.65 237.697 1732.16 237.534V187.966L1776.45 162.282ZM1732.16 293.318V243.75C1732.65 243.586 1733.14 243.259 1733.63 242.932L1776.45 267.798V319.002L1732.16 293.318ZM1822.53 347.303V398.507L1778.08 372.987V321.783L1822.53 347.303ZM1640.14 398.67V347.467L1684.43 321.783V370.369C1683.13 370.696 1681.98 372.005 1681.98 373.477C1681.98 373.805 1681.98 373.968 1682.14 374.295L1640.14 398.67ZM1686.23 370.369V321.783L1730.52 347.467V398.67L1688.52 374.295C1688.52 373.968 1688.68 373.805 1688.68 373.477C1688.52 372.005 1687.54 370.696 1686.23 370.369ZM1732.16 400.47L1776.45 374.786V425.99L1732.16 451.674V400.47ZM1732.16 453.637L1776.45 427.953V479.321L1732.16 505.004V453.637ZM1778.08 479.321V428.117L1820.25 452.328C1820.25 452.655 1820.08 452.819 1820.08 453.146C1820.08 454.618 1821.06 455.927 1822.53 456.254V504.841L1778.08 479.321ZM1824.17 456.254C1824.66 456.091 1825.31 455.764 1825.64 455.436L1868.46 480.302V531.506L1824.17 505.822V456.254ZM1868.46 534.287L1869.28 533.796L1870.09 534.287L1913.57 559.48L1869.28 585.164L1824.99 559.48L1868.46 534.287ZM1824.17 560.952L1868.46 586.636V637.84L1824.17 612.156V560.952ZM1914.55 613.956V665.16L1871.73 690.025C1871.4 689.698 1870.75 689.371 1870.26 689.207V639.639L1914.55 613.956ZM1642.59 293.645C1642.59 293.318 1642.59 293.154 1642.43 292.827L1685.74 267.798L1686.07 267.634V161.464L1728.72 136.762C1729.38 137.58 1730.19 138.071 1731.34 138.071C1733.14 138.071 1734.61 136.598 1734.61 134.799C1734.61 133.326 1733.63 132.018 1732.16 131.69V79.6686L1686.23 106.334V54.1485L1638.67 26.6653V81.6317L1683.78 107.643L1639.32 133.326L1596.5 108.461C1596.5 108.133 1596.67 107.97 1596.67 107.643C1596.67 105.843 1595.2 104.371 1593.4 104.371C1591.6 104.371 1590.13 105.843 1590.13 107.643C1590.13 109.115 1591.11 110.424 1592.58 110.751V213.486L1547.47 239.66L1503.18 213.977L1547.8 188.129L1548.13 187.966V134.799L1548.95 134.308L1548.13 133.817V81.6317L1593.73 55.2936L1594.05 55.13V0L1546.82 27.3196L1546.49 27.4832V79.6686L1502.2 53.9849V53.0034L1501.39 53.4941L1454.64 26.5017V78.0327C1454.15 78.1963 1453.5 78.5235 1453.17 78.8507L1410.35 54.1485V0L1364.43 26.5017L1317.2 53.8213L1316.87 53.9849V106.334L1272.58 80.6502V79.6686L1271.6 80.1594L1270.78 79.6686V80.6502L1225.67 106.825L1178.93 79.8322V133.981L1134.31 159.501V107.152L1040.83 53.167V107.315L998.008 132.181C997.354 131.527 996.7 131.2 995.72 131.2C993.922 131.2 992.451 132.672 992.451 134.471C992.451 136.271 993.922 137.743 995.72 137.743C996.537 137.743 997.354 137.416 998.008 136.762L1040.83 161.628V215.776L1088.06 188.456L1088.39 188.293V135.617L1132.68 161.3V215.449L1177.13 189.765C1177.46 190.092 1178.11 190.419 1178.6 190.583V241.133L1226.16 268.616V215.449L1272.09 241.951V186.984L1226.98 160.81L1271.6 135.289L1318.34 162.282V108.133L1362.63 82.4497V186.82L1317.03 213.159L1316.7 213.322V268.289L1361.16 242.605C1361.81 243.259 1362.47 243.586 1363.45 243.586C1365.24 243.586 1366.72 242.114 1366.72 240.315C1366.72 238.842 1365.74 237.534 1364.26 237.206V187.638L1409.86 161.3L1410.19 161.137V109.115L1454.64 134.799V184.367C1453.34 184.694 1452.19 186.003 1452.19 187.475C1452.19 187.802 1452.19 187.966 1452.36 188.293L1409.05 213.322L1408.72 213.486V268.452L1455.46 241.46L1501.39 267.961L1547.31 241.46L1593.24 267.961L1638.34 241.787V290.373C1637.04 290.701 1635.89 292.009 1635.89 293.482C1635.89 295.281 1637.36 296.753 1639.16 296.753C1641.12 296.917 1642.59 295.445 1642.59 293.645ZM1684.6 266.653L1641.78 291.519C1641.45 291.191 1640.8 290.864 1640.31 290.701V241.133L1641.12 240.642L1684.6 215.449V266.653ZM1594.22 162.282L1638.51 187.966V239.17L1594.22 213.486V162.282ZM1640.14 187.966L1684.43 162.282V213.486L1640.14 239.17V187.966ZM1684.6 160.319L1640.31 186.003V134.799L1684.6 109.115V160.319ZM1730.68 82.6133V131.854C1729.38 132.181 1728.23 133.49 1728.23 134.962C1728.23 135.126 1728.23 135.126 1728.23 135.289L1686.23 159.501V108.133L1730.68 82.6133ZM1640.31 29.4463L1684.6 55.13V106.334L1640.31 80.6502V29.4463ZM1594.22 110.751C1594.71 110.587 1595.36 110.26 1595.69 109.933L1638.51 134.799V186.003L1594.22 160.319V110.751ZM1501.39 159.992L1457.1 134.308L1477.2 122.693L1501.39 108.788L1545.68 134.471L1525.57 146.086L1501.39 159.992ZM1456.28 84.2492C1456.77 84.0856 1457.42 83.7584 1457.75 83.4312L1499.75 107.806L1456.28 132.836V84.2492ZM1500.57 106.334L1458.57 81.9589C1458.57 81.6317 1458.73 81.4681 1458.73 81.141C1458.73 80.8138 1458.73 80.6502 1458.57 80.323L1500.57 55.948V106.334ZM1500.57 161.3V212.668L1458.57 188.293C1458.57 187.966 1458.73 187.802 1458.73 187.475C1458.73 186.003 1457.75 184.694 1456.28 184.367V135.78L1500.57 161.3ZM1456.28 190.583C1456.77 190.419 1457.42 190.092 1457.75 189.765L1499.75 214.14L1456.28 239.17V190.583ZM1546.66 186.984L1502.2 212.668V161.3L1546.66 135.78V186.984ZM1548.29 28.4648L1592.58 2.78104V53.9849L1548.29 79.6686V28.4648ZM1546.66 81.6317V132.836L1502.37 107.152V55.948L1546.66 81.6317ZM1499.75 54.6393L1457.75 79.0143C1457.42 78.6871 1456.77 78.3599 1456.28 78.1963V29.4463L1499.75 54.6393ZM1408.72 2.78104V53.9849L1364.43 79.6686V28.4648L1408.72 2.78104ZM1270.78 82.6133V133.817L1226.49 159.501V108.133L1270.78 82.6133ZM1180.4 82.6133L1224.69 108.297V159.501L1180.24 133.981V82.6133H1180.4ZM1224.69 212.504L1182.53 188.293C1182.53 187.966 1182.69 187.802 1182.69 187.475C1182.69 186.003 1181.71 184.694 1180.24 184.367V135.78L1224.69 161.3V212.504ZM1132.68 159.501L1088.39 133.817V82.6133L1132.68 108.133V159.501ZM1042.46 55.948L1086.75 81.6317V132.836L1042.46 107.152V55.948ZM998.661 133.49L1041.48 108.624L1085.77 134.308L1065.67 145.923L1041.48 159.828L998.661 135.126C998.661 134.799 998.825 134.635 998.825 134.308C998.825 133.981 998.825 133.654 998.661 133.49ZM1086.75 186.984L1042.46 212.668V161.3L1086.75 135.78V186.984ZM1134.31 212.504V161.3L1178.77 135.78V184.367C1177.46 184.694 1176.31 186.003 1176.31 187.475C1176.31 187.802 1176.31 187.966 1176.48 188.293L1134.31 212.504ZM1224.69 265.671L1180.4 239.987V190.419C1180.89 190.256 1181.54 189.929 1181.87 189.602L1224.85 214.304V265.671H1224.69ZM1270.78 239.17L1226.49 213.486V162.282L1270.78 187.966V239.17ZM1316.7 159.501L1272.41 133.817V82.6133L1316.7 108.297V159.501ZM1318.34 106.334V54.9665L1362.63 29.4463V80.6502L1318.34 106.334ZM1408.72 55.948V107.152L1364.43 132.836V81.6317L1408.72 55.948ZM1318.34 265.671V214.467L1362.63 188.784V237.37C1361.32 237.697 1360.18 239.006 1360.18 240.478C1360.18 240.805 1360.18 240.969 1360.34 241.296L1318.34 265.671ZM1408.72 160.319L1364.43 186.003V134.799L1408.72 109.115V160.319ZM1410.35 55.948L1452.36 80.323C1452.36 80.6502 1452.19 80.8138 1452.19 81.141C1452.19 82.6133 1453.17 83.922 1454.64 84.2492V132.836L1410.35 107.152V55.948ZM1410.35 214.467L1453.17 189.602C1453.5 189.929 1454.15 190.256 1454.64 190.419V239.987L1410.35 265.671V214.467ZM1501.39 266.162L1457.1 240.478L1500.57 215.285L1501.39 214.795L1502.2 215.285L1545.68 240.478L1501.39 266.162ZM1549.11 240.642L1593.4 214.958L1637.69 240.642L1593.4 266.326L1549.11 240.642Z" fill="#EFEFEF"/>
</svg>
